<svg xmlns="http://www.w3.org/2000/svg" viewBox="0 0 1600 1000" preserveAspectRatio="xMidYMid slice">
  <defs>
    <radialGradient id="halo" cx="50%" cy="18%" r="72%">
      <stop offset="0" stop-color="#51545a" stop-opacity=".72"/>
      <stop offset=".42" stop-color="#17191d" stop-opacity=".62"/>
      <stop offset="1" stop-color="#020203"/>
    </radialGradient>
    <linearGradient id="foldA" x1="0" y1="0" x2="1" y2="1">
      <stop offset="0" stop-color="#090a0c" stop-opacity="0"/>
      <stop offset=".48" stop-color="#b8bcc3" stop-opacity=".15"/>
      <stop offset=".58" stop-color="#292c31" stop-opacity=".12"/>
      <stop offset="1" stop-color="#030304" stop-opacity="0"/>
    </linearGradient>
    <linearGradient id="foldB" x1="1" y1="0" x2="0" y2="1">
      <stop offset="0" stop-color="#e7e1d8" stop-opacity=".12"/>
      <stop offset=".36" stop-color="#656a72" stop-opacity=".08"/>
      <stop offset=".62" stop-color="#050506" stop-opacity="0"/>
    </linearGradient>
  </defs>
  <rect width="1600" height="1000" fill="#020203"/>
  <rect width="1600" height="1000" fill="url(#halo)"/>
  <path d="M-120 820C260 690 510 238 892-80L1260-80C914 240 785 690 540 1080H-120Z" fill="url(#foldA)"/>
  <path d="M1710 110C1315 210 1125 500 960 1080H1390C1460 690 1565 430 1710 340Z" fill="url(#foldB)"/>
  <path d="M-40 280C330 388 520 240 746 34" fill="none" stroke="#fff" stroke-opacity=".055" stroke-width="24"/>
  <path d="M940-20C818 250 768 430 690 710" fill="none" stroke="#fff" stroke-opacity=".045" stroke-width="42"/>
  <rect width="1600" height="1000" fill="url(#halo)" opacity=".3"/>
</svg>
