<svg xmlns="http://www.w3.org/2000/svg" width="64" height="64" viewBox="0 0 64 64" fill="none">
  <defs>
    <linearGradient id="medilens-surface" x1="10" y1="8" x2="54" y2="58" gradientUnits="userSpaceOnUse">
      <stop stop-color="#FFFFFF" stop-opacity="0.13" />
      <stop offset="1" stop-color="#FFFFFF" stop-opacity="0.035" />
    </linearGradient>
  </defs>
  <rect x="0.75" y="0.75" width="62.5" height="62.5" rx="21.25" fill="#08090B" fill-opacity="0.96" stroke="#FFFFFF" stroke-opacity="0.3" stroke-width="1.5" />
  <rect x="1.5" y="1.5" width="61" height="61" rx="20.5" fill="url(#medilens-surface)" />
  <g transform="translate(18 18) scale(1.1666667)" stroke="#FFFFFF" stroke-opacity="0.98" stroke-width="1.65" stroke-linecap="round" stroke-linejoin="round">
    <path d="M11 2v2" />
    <path d="M5 2v2" />
    <path d="M5 3H4a2 2 0 0 0-2 2v3a6 6 0 0 0 12 0V5a2 2 0 0 0-2-2h-1" />
    <path d="M8 14a6 6 0 0 0 12 0v-2" />
    <circle cx="20" cy="10" r="2" />
  </g>
</svg>
